<?xml version="1.0" standalone="no"?>
<!DOCTYPE svg PUBLIC "-//W3C//DTD SVG 20010904//EN"
 "http://www.w3.org/TR/2001/REC-SVG-20010904/DTD/svg10.dtd">
<svg version="1.0" xmlns="http://www.w3.org/2000/svg"
 width="206.000000pt" height="172.000000pt" viewBox="0 0 206.000000 172.000000"
 preserveAspectRatio="xMidYMid meet">

<g transform="translate(0.000000,172.000000) scale(0.100000,-0.100000)"
fill="#000000" stroke="none">
<path d="M685 1638 c-3 -7 -6 -76 -7 -153 l-3 -140 -297 -3 -298 -2 0 -80 0
-80 298 -2 297 -3 5 -570 5 -570 75 0 75 0 3 572 2 573 578 2 577 3 0 75 0 75
-577 3 -577 2 -3 153 -3 152 -73 3 c-52 2 -74 -1 -77 -10z"/>
<path d="M82 638 c3 -425 3 -434 25 -475 12 -22 39 -54 58 -71 91 -75 271 -71
354 8 54 52 55 60 59 533 l4 437 -85 0 -85 0 -3 -435 c-4 -478 -1 -455 -65
-455 -60 0 -59 -7 -62 462 l-3 428 -100 0 -100 0 3 -432z"/>
<path d="M1067 1056 c-83 -31 -131 -105 -132 -206 0 -95 23 -142 147 -302 133
-172 148 -200 148 -272 0 -44 -5 -61 -24 -83 -24 -27 -26 -27 -53 -13 -23 13
-31 27 -41 75 -8 33 -15 66 -18 73 -2 8 -27 12 -80 12 l-77 0 6 -78 c10 -128
44 -181 132 -208 57 -17 154 -18 210 -3 112 30 177 177 141 319 -18 70 -45
118 -113 206 -179 230 -190 250 -175 309 5 17 20 36 34 44 23 13 29 13 52 -2
23 -15 26 -24 26 -71 0 -85 1 -86 91 -86 l79 0 0 83 c0 105 -25 161 -85 191
-52 26 -211 33 -268 12z"/>
<path d="M1607 1039 c-25 -17 -57 -47 -69 -67 -23 -37 -23 -38 -23 -418 l0
-380 28 -42 c38 -58 92 -83 194 -90 100 -6 157 12 202 64 36 40 47 80 57 192
l7 83 -84 -3 -84 -3 -5 -86 c-5 -95 -18 -119 -59 -119 -45 0 -55 14 -62 92
-10 91 -10 452 -1 571 7 91 16 107 58 107 45 0 59 -23 64 -112 l5 -83 80 0 80
0 -3 75 c-7 195 -61 250 -245 250 -88 0 -96 -2 -140 -31z"/>
</g>
</svg>
